<?xml version="1.0" encoding="UTF-8"?>
<svg id="Layer_1" data-name="Layer 1" xmlns="http://www.w3.org/2000/svg" viewBox="0 0 1400 500">
  <defs>
    <style>
      .cls-1 {
        fill: #ff7146;
      }
    </style>
  </defs>
  <g>
    <path d="m400.16,29.73h32.66v178.16h53.74v29.69h-86.4V29.73Z"/>
    <path d="m499.23,29.73h32.66v207.85h-32.66V29.73Z"/>
    <path d="m647.38,77.54v7.42c0,21.38-6.53,35.04-21.08,41.86,17.52,6.83,24.34,22.57,24.34,44.54v16.92c0,32.07-16.92,49.29-49.58,49.29h-51.37V29.73h49.29c33.85,0,48.4,15.74,48.4,47.81Zm-65.03-18.11v54.93h12.77c12.18,0,19.6-5.35,19.6-21.97v-11.58c0-14.85-5.05-21.38-16.63-21.38h-15.74Zm0,84.62v63.84h18.71c10.99,0,16.92-5.05,16.92-20.49v-18.11c0-19.3-6.24-25.24-21.08-25.24h-14.55Z"/>
    <path d="m698.45,117.32h44.84v29.69h-44.84v60.87h56.42v29.69h-89.08V29.73h89.08v29.69h-56.42v57.9Z"/>
    <path d="m838.55,237.58c-1.78-5.34-2.97-8.61-2.97-25.54v-32.66c0-19.3-6.53-26.43-21.37-26.43h-11.29v84.62h-32.66V29.73h49.29c33.85,0,48.4,15.74,48.4,47.81v16.33c0,21.38-6.83,35.33-21.38,42.16,16.33,6.83,21.68,22.57,21.68,44.24v32.07c0,10.1.3,17.52,3.56,25.24h-33.26Zm-35.63-178.16v63.84h12.77c12.18,0,19.6-5.34,19.6-21.97v-20.49c0-14.85-5.05-21.38-16.63-21.38h-15.74Z"/>
    <path d="m996.48,237.58h-32.96l-5.64-37.71h-40.09l-5.64,37.71h-29.99l33.26-207.85h47.81l33.26,207.85Zm-74.53-65.92h31.48l-15.74-105.11-15.74,105.11Z"/>
    <path d="m990.11,29.73h100.96v29.69h-34.15v178.16h-32.66V59.42h-34.15v-29.69Z"/>
    <path d="m1103.73,29.73h32.66v207.85h-32.66V29.73Z"/>
    <path d="m1152.78,79.61c0-33.26,17.52-52.26,49.58-52.26s49.59,19,49.59,52.26v108.08c0,33.26-17.52,52.26-49.59,52.26s-49.58-19-49.58-52.26v-108.08Zm32.66,110.16c0,14.85,6.53,20.49,16.92,20.49s16.93-5.64,16.93-20.49v-112.24c0-14.85-6.54-20.49-16.93-20.49s-16.92,5.64-16.92,20.49v112.24Z"/>
    <path d="m1297.64,87.04v150.54h-29.39V29.73h40.97l33.56,124.41V29.73h29.1v207.85h-33.56l-40.68-150.54Z"/>
    <path d="m400.16,266.37h100.95v29.69h-34.15v178.16h-32.66v-178.16h-34.15v-29.69Z"/>
    <path d="m582.07,474.22c-1.78-5.35-2.97-8.61-2.97-25.53v-32.66c0-19.3-6.54-26.43-21.38-26.43h-11.28v84.62h-32.66v-207.85h49.29c33.85,0,48.4,15.74,48.4,47.81v16.33c0,21.38-6.83,35.33-21.38,42.16,16.33,6.83,21.68,22.56,21.68,44.24v32.07c0,10.1.3,17.52,3.56,25.24h-33.26Zm-35.63-178.16v63.84h12.77c12.18,0,19.6-5.34,19.6-21.97v-20.49c0-14.85-5.05-21.38-16.63-21.38h-15.74Z"/>
    <path d="m739.99,474.22h-32.96l-5.64-37.71h-40.09l-5.64,37.71h-29.99l33.26-207.85h47.81l33.26,207.85Zm-74.53-65.92h31.48l-15.74-105.11-15.74,105.11Z"/>
    <path d="m791.59,435.92l24.94-169.54h29.99l-32.07,207.85h-48.69l-32.07-207.85h32.96l24.94,169.54Z"/>
    <path d="m892.26,353.97h44.84v29.69h-44.84v60.87h56.42v29.69h-89.08v-207.85h89.08v29.69h-56.42v57.9Z"/>
    <path d="m964.08,266.37h32.66v178.16h53.74v29.69h-86.4v-207.85Z"/>
  </g>
  <path class="cls-1" d="m332.96,178.42c0-83.94-68.05-151.99-151.99-151.99S28.99,94.48,28.99,178.42c0,49.78,23.94,93.97,60.93,121.69l-60.93,174.38h91.89l41.91-269.42v-93.07l18.18-18.18,18.18,18.18v38.54l.99.7,76.7,53.68v31.22l-38.35-15.34-38.35-15.34-.99-.4,41.91,269.43h91.89l-60.93-174.38c36.99-27.72,60.93-71.91,60.93-121.69Zm-247.86,57.73v-31.22l62.56-43.79-8.13,53.24-16.08,6.43-38.35,15.34Z"/>
</svg>