<svg width="268" height="44" viewBox="0 0 268 44" fill="none" xmlns="http://www.w3.org/2000/svg">
<g clip-path="url(#clip0_1438_8452)">
<mask id="mask0_1438_8452" style="mask-type:luminance" maskUnits="userSpaceOnUse" x="2" y="3" width="41" height="38">
<path d="M43 3H2V41H43V3Z" fill="white"/>
</mask>
<g mask="url(#mask0_1438_8452)">
<path d="M34.4585 18.4471C34.6489 19.0231 35.597 21.6 35.6008 23.8237C35.6065 27.2032 34.8926 30.6174 34.6984 31.4853C34.6794 31.5678 34.5747 31.5852 34.5271 31.516L32.5814 28.6607C32.5662 28.6376 32.5605 28.6088 32.5681 28.58C32.6538 28.2766 33.1545 26.3468 32.9356 23.0536C32.7623 20.4287 31.325 18.1226 31.0698 17.7347C31.047 17.7001 31.0508 17.654 31.0756 17.6214L42.9265 3.03542C42.9855 2.96245 43.1035 3.01046 43.0959 3.10455L42.6466 8.62324C42.6466 8.64245 42.6371 8.66164 42.6238 8.67701L34.4567 18.4471H34.4585Z" fill="url(#paint0_linear_1438_8452)"/>
<path d="M43.0629 11.8684L42.0768 17.846C42.0748 17.8633 42.0672 17.8786 42.0558 17.8902L38.0236 22.8808C37.9703 22.9461 37.8656 22.9154 37.8561 22.8328L37.3174 18.5488C37.3136 18.5219 37.3212 18.495 37.3383 18.4759L42.8934 11.7916C42.9563 11.7167 43.0762 11.7723 43.061 11.8684H43.0629Z" fill="url(#paint1_linear_1438_8452)"/>
<path d="M41.0614 22.0223L37.9011 25.9184C37.8916 25.9299 37.884 25.9453 37.8821 25.9607L36.8027 31.6003C36.7837 31.6983 36.9093 31.7578 36.9702 31.679L39.9668 27.8751C39.9763 27.8636 39.982 27.8501 39.9858 27.8367L41.2289 22.1048C41.2499 22.0069 41.1261 21.9455 41.0614 22.0242V22.0223Z" fill="url(#paint2_linear_1438_8452)"/>
<path d="M22.4448 33.6472C22.4106 33.6741 22.361 33.6741 22.3268 33.6472L18.4431 30.498C18.4202 30.4769 18.4069 30.4462 18.4107 30.4155L18.5897 28.7891C18.5916 28.7679 18.6011 28.7468 18.6163 28.7314L19.1056 28.238C19.136 28.2072 19.1418 28.1592 19.1209 28.1227L17.7406 25.688C17.7025 25.6207 17.6036 25.6245 17.5712 25.6956L13.718 34.0236C13.7028 34.0562 13.7066 34.0946 13.7294 34.1234L16.0482 37.1823C16.092 37.24 16.1796 37.2303 16.21 37.1651L17.8092 33.7797C17.8548 33.6837 17.9976 33.7221 17.9901 33.8277L17.476 40.9095C17.4703 40.9901 17.3751 41.0266 17.3161 40.9728L13.3296 37.3186C13.3296 37.3186 13.3144 37.3014 13.3087 37.2898L10.8928 32.4163C10.8776 32.3856 10.8795 32.3472 10.9005 32.3184L12.9375 29.3287C12.9375 29.3287 12.9413 29.3229 12.9432 29.321L16.5089 22.6962C16.5165 22.6828 16.5203 22.6674 16.5203 22.6521L16.7069 14.7101C16.7069 14.7101 16.7069 14.6908 16.7126 14.6813L17.2647 13.0107C17.2704 12.9934 17.2704 12.9761 17.2666 12.9588L16.151 8.27158C16.1453 8.24854 16.1491 8.22357 16.1605 8.20438L18.0147 4.73071C18.0547 4.65582 18.1633 4.66542 18.1899 4.74607L20.3716 11.5321C20.3773 11.5513 20.3773 11.5705 20.3716 11.5897L18.7001 17.0259C18.6906 17.0547 18.6963 17.0854 18.7134 17.1084L21.3063 20.8452C21.3178 20.8605 21.3235 20.8797 21.3235 20.9008V27.8194C21.3273 27.8328 21.3311 27.852 21.335 27.8654L22.3934 29.8318C22.4296 29.8989 22.5247 29.8989 22.5609 29.8318L23.5966 27.8654C23.6042 27.852 23.608 27.8366 23.608 27.8213V20.9027C23.608 20.8836 23.6137 20.8643 23.6252 20.8471L26.2181 17.1103C26.2352 17.0854 26.239 17.0547 26.2314 17.0278L24.5599 11.5916C24.5542 11.5725 24.5542 11.5532 24.5599 11.5341L26.7416 4.74799C26.7682 4.66734 26.8768 4.65774 26.9168 4.73263L28.771 8.20629C28.7824 8.22741 28.7843 8.25046 28.7805 8.27351L27.6649 12.9607C27.6611 12.9781 27.6611 12.9972 27.6668 13.0126L28.2189 14.6832C28.2189 14.6832 28.2227 14.7024 28.2246 14.712L28.4112 22.654C28.4112 22.6693 28.415 22.6847 28.4226 22.6981L31.9884 29.3229C31.9884 29.3229 31.9922 29.3287 31.994 29.3306L34.0311 32.3203C34.0501 32.3491 34.0539 32.3856 34.0387 32.4182L31.6228 37.2918C31.6171 37.3033 31.6095 37.311 31.6019 37.3205L27.6154 40.9747C27.5564 41.0285 27.4631 40.9901 27.4555 40.9114L26.9415 33.8296C26.9339 33.724 27.0767 33.6856 27.1224 33.7816L28.7215 37.167C28.7519 37.2323 28.8395 37.2419 28.8833 37.1842L31.2021 34.1253C31.2231 34.0966 31.2269 34.0582 31.2135 34.0255L27.3603 25.6975C27.3279 25.6264 27.229 25.6226 27.1908 25.6899L25.8107 28.1247C25.7897 28.1631 25.7954 28.2092 25.8258 28.2399L26.3151 28.7333C26.3304 28.7488 26.3399 28.7698 26.3418 28.791L26.5208 30.4136C26.5246 30.4462 26.5112 30.4789 26.4846 30.4999L22.4429 33.651L22.4448 33.6472Z" fill="url(#paint3_linear_1438_8452)"/>
<path d="M10.6377 18.4472C10.4473 19.0232 9.49925 21.6002 9.49544 23.8238C9.48973 27.2034 10.2036 30.6175 10.3978 31.4854C10.4168 31.568 10.5216 31.5853 10.5692 31.5161L12.5148 28.6608C12.53 28.6378 12.5358 28.609 12.5281 28.5801C12.4425 28.2768 11.9418 26.3469 12.1607 23.0538C12.3339 20.4288 13.7713 18.1227 14.0264 17.7348C14.0492 17.7002 14.0454 17.6541 14.0207 17.6215L2.16979 3.03554C2.11077 2.9645 1.99274 3.01058 2.00035 3.10467L2.44964 8.62529C2.44964 8.64448 2.45916 8.66369 2.47248 8.67905L10.6396 18.4491L10.6377 18.4472Z" fill="url(#paint4_linear_1438_8452)"/>
<path d="M2.03257 11.8684L3.01872 17.846C3.02063 17.8633 3.02824 17.8786 3.03966 17.8902L7.07182 22.8808C7.12512 22.9461 7.22983 22.9154 7.23935 22.8328L7.77811 18.5488C7.78192 18.5219 7.77431 18.495 7.75717 18.4759L2.2001 11.7916C2.13728 11.7167 2.01734 11.7723 2.03257 11.8684Z" fill="url(#paint5_linear_1438_8452)"/>
<path d="M4.03707 22.0223L7.19731 25.9184C7.20683 25.9299 7.21445 25.9453 7.21635 25.9607L8.29578 31.6003C8.31482 31.6983 8.18917 31.7578 8.12825 31.679L5.13173 27.8751C5.12222 27.8636 5.11651 27.8501 5.1127 27.8367L3.86954 22.1048C3.8486 22.0069 3.97235 21.9455 4.03707 22.0242V22.0223Z" fill="url(#paint6_linear_1438_8452)"/>
</g>
</g>
<path d="M67.664 13C69.088 13 70.32 13.248 71.36 13.744C72.4 14.24 73.192 14.936 73.736 15.832C74.296 16.728 74.576 17.768 74.576 18.952C74.576 20.136 74.296 21.176 73.736 22.072C73.192 22.952 72.4 23.648 71.36 24.16C70.32 24.656 69.088 24.904 67.664 24.904H59.72V21.544H67.448C68.392 21.544 69.128 21.312 69.656 20.848C70.2 20.384 70.472 19.752 70.472 18.952C70.472 18.136 70.2 17.504 69.656 17.056C69.128 16.592 68.392 16.36 67.448 16.36H60.08L61.928 14.416V31H57.848V13H67.664ZM83.9894 31.36C82.3734 31.36 80.9254 31.064 79.6454 30.472C78.3814 29.864 77.3814 29.016 76.6454 27.928C75.9254 26.84 75.5654 25.576 75.5654 24.136C75.5654 22.712 75.9094 21.464 76.5974 20.392C77.3014 19.32 78.2614 18.488 79.4774 17.896C80.6934 17.288 82.0774 16.984 83.6294 16.984C85.2134 16.984 86.5734 17.336 87.7094 18.04C88.8454 18.728 89.7174 19.704 90.3254 20.968C90.9494 22.232 91.2614 23.72 91.2614 25.432H78.7814V22.768H89.1014L87.5414 23.728C87.4774 22.928 87.2774 22.248 86.9414 21.688C86.6214 21.128 86.1814 20.696 85.6214 20.392C85.0614 20.088 84.4054 19.936 83.6534 19.936C82.8374 19.936 82.1254 20.104 81.5174 20.44C80.9254 20.76 80.4614 21.216 80.1254 21.808C79.8054 22.384 79.6454 23.064 79.6454 23.848C79.6454 24.792 79.8534 25.6 80.2694 26.272C80.6854 26.944 81.2934 27.456 82.0934 27.808C82.8934 28.16 83.8614 28.336 84.9974 28.336C86.0214 28.336 87.0534 28.192 88.0934 27.904C89.1334 27.6 90.0694 27.176 90.9014 26.632V29.32C90.0054 29.96 88.9574 30.464 87.7574 30.832C86.5734 31.184 85.3174 31.36 83.9894 31.36ZM105.75 27.616V25.24L105.894 24.736V21.76L105.75 21.256V17.344H109.758V27.352C109.758 29.08 109.374 30.536 108.606 31.72C107.854 32.904 106.806 33.8 105.462 34.408C104.118 35.016 102.558 35.32 100.782 35.32C99.5338 35.32 98.3818 35.16 97.3258 34.84C96.2858 34.52 95.2618 34.032 94.2538 33.376V30.232C95.2298 30.984 96.2458 31.52 97.3018 31.84C98.3738 32.16 99.4538 32.32 100.542 32.32C102.222 32.32 103.51 31.928 104.406 31.144C105.302 30.36 105.75 29.184 105.75 27.616ZM99.5338 29.752C98.2698 29.752 97.1338 29.488 96.1258 28.96C95.1338 28.432 94.3498 27.688 93.7738 26.728C93.1978 25.768 92.9098 24.648 92.9098 23.368C92.9098 22.088 93.1978 20.976 93.7738 20.032C94.3498 19.072 95.1338 18.328 96.1258 17.8C97.1338 17.256 98.2698 16.984 99.5338 16.984C100.494 16.984 101.366 17.136 102.15 17.44C102.95 17.728 103.662 18.112 104.286 18.592C104.926 19.072 105.462 19.6 105.894 20.176C106.326 20.736 106.654 21.304 106.878 21.88C107.118 22.44 107.238 22.952 107.238 23.416C107.238 24.008 107.054 24.672 106.686 25.408C106.334 26.144 105.822 26.84 105.15 27.496C104.478 28.152 103.67 28.696 102.726 29.128C101.782 29.544 100.718 29.752 99.5338 29.752ZM100.854 26.92C101.894 26.92 102.83 26.64 103.662 26.08C104.51 25.504 105.254 24.6 105.894 23.368C105.254 22.12 104.51 21.216 103.662 20.656C102.814 20.08 101.878 19.792 100.854 19.792C100.038 19.792 99.3338 19.944 98.7418 20.248C98.1658 20.536 97.7178 20.952 97.3978 21.496C97.0938 22.024 96.9418 22.648 96.9418 23.368C96.9418 24.072 97.0938 24.696 97.3978 25.24C97.7018 25.768 98.1498 26.184 98.7418 26.488C99.3338 26.776 100.038 26.92 100.854 26.92ZM125.211 31L124.635 26.008L125.283 24.184L124.635 22.384L125.211 17.344H129.363L128.571 24.184L129.363 31H125.211ZM126.267 24.184C126.011 25.624 125.539 26.888 124.851 27.976C124.179 29.048 123.323 29.88 122.283 30.472C121.259 31.064 120.107 31.36 118.827 31.36C117.499 31.36 116.323 31.064 115.299 30.472C114.275 29.864 113.475 29.024 112.899 27.952C112.339 26.864 112.059 25.608 112.059 24.184C112.059 22.744 112.339 21.488 112.899 20.416C113.475 19.328 114.275 18.488 115.299 17.896C116.323 17.288 117.499 16.984 118.827 16.984C120.107 16.984 121.259 17.28 122.283 17.872C123.323 18.464 124.187 19.304 124.875 20.392C125.563 21.464 126.027 22.728 126.267 24.184ZM116.115 24.184C116.115 24.984 116.275 25.688 116.595 26.296C116.931 26.904 117.387 27.384 117.963 27.736C118.539 28.072 119.203 28.24 119.955 28.24C120.707 28.24 121.411 28.072 122.067 27.736C122.739 27.384 123.331 26.904 123.843 26.296C124.355 25.688 124.755 24.984 125.043 24.184C124.755 23.384 124.355 22.68 123.843 22.072C123.331 21.448 122.739 20.968 122.067 20.632C121.411 20.28 120.707 20.104 119.955 20.104C119.203 20.104 118.539 20.28 117.963 20.632C117.387 20.968 116.931 21.448 116.595 22.072C116.275 22.68 116.115 23.384 116.115 24.184ZM146.972 26.704C146.972 27.68 146.684 28.52 146.108 29.224C145.548 29.928 144.708 30.464 143.588 30.832C142.468 31.184 141.1 31.36 139.484 31.36C137.82 31.36 136.372 31.16 135.14 30.76C133.908 30.344 132.948 29.76 132.26 29.008C131.572 28.256 131.204 27.384 131.156 26.392H135.236C135.332 26.84 135.572 27.232 135.956 27.568C136.34 27.888 136.836 28.136 137.444 28.312C138.068 28.488 138.788 28.576 139.604 28.576C140.74 28.576 141.596 28.448 142.172 28.192C142.764 27.936 143.06 27.552 143.06 27.04C143.06 26.672 142.852 26.392 142.436 26.2C142.036 26.008 141.292 25.864 140.204 25.768L137.66 25.576C136.14 25.448 134.932 25.192 134.036 24.808C133.14 24.424 132.5 23.944 132.116 23.368C131.748 22.776 131.564 22.128 131.564 21.424C131.564 20.448 131.868 19.632 132.476 18.976C133.084 18.32 133.932 17.824 135.02 17.488C136.124 17.152 137.396 16.984 138.836 16.984C140.308 16.984 141.62 17.184 142.772 17.584C143.924 17.984 144.844 18.536 145.532 19.24C146.236 19.944 146.636 20.76 146.732 21.688H142.652C142.588 21.352 142.404 21.04 142.1 20.752C141.812 20.448 141.388 20.2 140.828 20.008C140.268 19.816 139.54 19.72 138.644 19.72C137.636 19.72 136.86 19.84 136.316 20.08C135.772 20.304 135.5 20.648 135.5 21.112C135.5 21.432 135.668 21.696 136.004 21.904C136.34 22.096 136.964 22.232 137.876 22.312L141.188 22.576C142.66 22.704 143.82 22.952 144.668 23.32C145.516 23.672 146.108 24.136 146.444 24.712C146.796 25.288 146.972 25.952 146.972 26.704ZM155.054 31.36C153.79 31.36 152.71 31.104 151.814 30.592C150.934 30.064 150.254 29.32 149.774 28.36C149.31 27.4 149.078 26.264 149.078 24.952V17.344H153.086V24.352C153.086 25.568 153.374 26.496 153.95 27.136C154.526 27.76 155.342 28.072 156.398 28.072C157.182 28.072 157.846 27.912 158.39 27.592C158.95 27.256 159.382 26.776 159.686 26.152C159.99 25.528 160.142 24.8 160.142 23.968L161.438 24.664C161.278 26.072 160.902 27.28 160.31 28.288C159.718 29.28 158.966 30.04 158.054 30.568C157.158 31.096 156.158 31.36 155.054 31.36ZM160.982 31L160.142 25.816V17.344H164.15V26.416L164.99 31H160.982ZM182.316 26.704C182.316 27.68 182.028 28.52 181.452 29.224C180.892 29.928 180.052 30.464 178.932 30.832C177.812 31.184 176.444 31.36 174.828 31.36C173.164 31.36 171.716 31.16 170.484 30.76C169.252 30.344 168.292 29.76 167.604 29.008C166.916 28.256 166.548 27.384 166.5 26.392H170.58C170.676 26.84 170.916 27.232 171.3 27.568C171.684 27.888 172.18 28.136 172.788 28.312C173.412 28.488 174.132 28.576 174.948 28.576C176.084 28.576 176.94 28.448 177.516 28.192C178.108 27.936 178.404 27.552 178.404 27.04C178.404 26.672 178.196 26.392 177.78 26.2C177.38 26.008 176.636 25.864 175.548 25.768L173.004 25.576C171.484 25.448 170.276 25.192 169.38 24.808C168.484 24.424 167.844 23.944 167.46 23.368C167.092 22.776 166.908 22.128 166.908 21.424C166.908 20.448 167.212 19.632 167.82 18.976C168.428 18.32 169.276 17.824 170.364 17.488C171.468 17.152 172.74 16.984 174.18 16.984C175.652 16.984 176.964 17.184 178.116 17.584C179.268 17.984 180.188 18.536 180.876 19.24C181.58 19.944 181.98 20.76 182.076 21.688H177.996C177.932 21.352 177.748 21.04 177.444 20.752C177.156 20.448 176.732 20.2 176.172 20.008C175.612 19.816 174.884 19.72 173.988 19.72C172.98 19.72 172.204 19.84 171.66 20.08C171.116 20.304 170.844 20.648 170.844 21.112C170.844 21.432 171.012 21.696 171.348 21.904C171.684 22.096 172.308 22.232 173.22 22.312L176.532 22.576C178.004 22.704 179.164 22.952 180.012 23.32C180.86 23.672 181.452 24.136 181.788 24.712C182.14 25.288 182.316 25.952 182.316 26.704ZM183.943 25.12H188.071C188.167 25.728 188.431 26.264 188.863 26.728C189.311 27.176 189.903 27.528 190.639 27.784C191.391 28.024 192.255 28.144 193.231 28.144C194.655 28.144 195.775 27.944 196.591 27.544C197.423 27.128 197.839 26.552 197.839 25.816C197.839 25.24 197.599 24.8 197.119 24.496C196.655 24.176 195.783 23.944 194.503 23.8L190.879 23.392C188.543 23.136 186.847 22.592 185.791 21.76C184.751 20.912 184.231 19.736 184.231 18.232C184.231 17.048 184.575 16.04 185.263 15.208C185.967 14.376 186.951 13.744 188.215 13.312C189.479 12.864 190.967 12.64 192.679 12.64C194.343 12.64 195.823 12.888 197.119 13.384C198.415 13.864 199.447 14.544 200.215 15.424C200.983 16.288 201.399 17.304 201.463 18.472H197.335C197.255 17.944 197.015 17.488 196.615 17.104C196.231 16.704 195.695 16.4 195.007 16.192C194.319 15.968 193.511 15.856 192.583 15.856C191.287 15.856 190.255 16.048 189.487 16.432C188.719 16.816 188.335 17.36 188.335 18.064C188.335 18.608 188.559 19.032 189.007 19.336C189.471 19.624 190.279 19.84 191.431 19.984L195.199 20.44C196.863 20.616 198.183 20.904 199.159 21.304C200.151 21.688 200.855 22.208 201.271 22.864C201.703 23.52 201.919 24.352 201.919 25.36C201.919 26.56 201.551 27.616 200.815 28.528C200.095 29.424 199.079 30.12 197.767 30.616C196.455 31.112 194.919 31.36 193.159 31.36C191.367 31.36 189.791 31.104 188.431 30.592C187.071 30.064 185.999 29.336 185.215 28.408C184.431 27.464 184.007 26.368 183.943 25.12ZM222.142 28.816H220.822L225.094 17.344H229.102L223.822 31H219.718L215.158 19.216H216.598L211.966 31H207.862L202.582 17.344H206.638L210.934 28.816H209.566L213.934 17.344H217.846L222.142 28.816ZM242.797 31L242.221 26.008L242.869 24.184L242.221 22.384L242.797 17.344H246.949L246.157 24.184L246.949 31H242.797ZM243.853 24.184C243.597 25.624 243.125 26.888 242.437 27.976C241.765 29.048 240.909 29.88 239.869 30.472C238.845 31.064 237.693 31.36 236.413 31.36C235.085 31.36 233.909 31.064 232.885 30.472C231.861 29.864 231.061 29.024 230.485 27.952C229.925 26.864 229.645 25.608 229.645 24.184C229.645 22.744 229.925 21.488 230.485 20.416C231.061 19.328 231.861 18.488 232.885 17.896C233.909 17.288 235.085 16.984 236.413 16.984C237.693 16.984 238.845 17.28 239.869 17.872C240.909 18.464 241.773 19.304 242.461 20.392C243.149 21.464 243.613 22.728 243.853 24.184ZM233.701 24.184C233.701 24.984 233.861 25.688 234.181 26.296C234.517 26.904 234.973 27.384 235.549 27.736C236.125 28.072 236.789 28.24 237.541 28.24C238.293 28.24 238.997 28.072 239.653 27.736C240.325 27.384 240.917 26.904 241.429 26.296C241.941 25.688 242.341 24.984 242.629 24.184C242.341 23.384 241.941 22.68 241.429 22.072C240.917 21.448 240.325 20.968 239.653 20.632C238.997 20.28 238.293 20.104 237.541 20.104C236.789 20.104 236.125 20.28 235.549 20.632C234.973 20.968 234.517 21.448 234.181 22.072C233.861 22.68 233.701 23.384 233.701 24.184ZM249.629 17.344H253.637V21.688L253.469 22.216V25.504L253.637 26.488V34.96H249.629V17.344ZM252.245 24.184C252.517 22.728 252.989 21.464 253.661 20.392C254.349 19.304 255.205 18.464 256.229 17.872C257.269 17.28 258.421 16.984 259.685 16.984C261.029 16.984 262.205 17.288 263.213 17.896C264.237 18.488 265.037 19.328 265.613 20.416C266.189 21.488 266.477 22.744 266.477 24.184C266.477 25.608 266.189 26.864 265.613 27.952C265.037 29.024 264.237 29.864 263.213 30.472C262.205 31.064 261.029 31.36 259.685 31.36C258.405 31.36 257.253 31.064 256.229 30.472C255.221 29.88 254.373 29.048 253.685 27.976C252.997 26.888 252.517 25.624 252.245 24.184ZM262.421 24.184C262.421 23.384 262.253 22.68 261.917 22.072C261.597 21.448 261.149 20.968 260.573 20.632C259.997 20.28 259.333 20.104 258.581 20.104C257.829 20.104 257.117 20.28 256.445 20.632C255.773 20.968 255.181 21.448 254.669 22.072C254.173 22.68 253.781 23.384 253.493 24.184C253.781 24.984 254.173 25.688 254.669 26.296C255.181 26.904 255.773 27.384 256.445 27.736C257.117 28.072 257.829 28.24 258.581 28.24C259.333 28.24 259.997 28.072 260.573 27.736C261.149 27.384 261.597 26.904 261.917 26.296C262.253 25.688 262.421 24.984 262.421 24.184Z" fill="url(#paint7_linear_1438_8452)"/>
<defs>
<linearGradient id="paint0_linear_1438_8452" x1="37.0755" y1="3" x2="37.0755" y2="31.559" gradientUnits="userSpaceOnUse">
<stop stop-color="#B237FF"/>
<stop offset="1" stop-color="#E4B7FF"/>
</linearGradient>
<linearGradient id="paint1_linear_1438_8452" x1="40.1896" y1="11.7568" x2="40.1896" y2="22.9161" gradientUnits="userSpaceOnUse">
<stop stop-color="#B237FF"/>
<stop offset="1" stop-color="#E4B7FF"/>
</linearGradient>
<linearGradient id="paint2_linear_1438_8452" x1="39.016" y1="21.9883" x2="39.016" y2="31.7154" gradientUnits="userSpaceOnUse">
<stop stop-color="#B237FF"/>
<stop offset="1" stop-color="#E4B7FF"/>
</linearGradient>
<linearGradient id="paint3_linear_1438_8452" x1="22.4655" y1="4.67969" x2="22.4655" y2="40.9997" gradientUnits="userSpaceOnUse">
<stop stop-color="#B237FF"/>
<stop offset="1" stop-color="#E4B7FF"/>
</linearGradient>
<linearGradient id="paint4_linear_1438_8452" x1="8.02077" y1="3.00098" x2="8.02077" y2="31.5591" gradientUnits="userSpaceOnUse">
<stop stop-color="#B237FF"/>
<stop offset="1" stop-color="#E4B7FF"/>
</linearGradient>
<linearGradient id="paint5_linear_1438_8452" x1="4.90516" y1="11.7568" x2="4.90516" y2="22.9161" gradientUnits="userSpaceOnUse">
<stop stop-color="#B237FF"/>
<stop offset="1" stop-color="#E4B7FF"/>
</linearGradient>
<linearGradient id="paint6_linear_1438_8452" x1="6.08246" y1="21.9883" x2="6.08246" y2="31.7154" gradientUnits="userSpaceOnUse">
<stop stop-color="#B237FF"/>
<stop offset="1" stop-color="#E4B7FF"/>
</linearGradient>
<linearGradient id="paint7_linear_1438_8452" x1="162" y1="7" x2="162" y2="37" gradientUnits="userSpaceOnUse">
<stop stop-color="#B237FF"/>
<stop offset="1" stop-color="#E4B7FF"/>
</linearGradient>
<clipPath id="clip0_1438_8452">
<rect width="41" height="38" fill="white" transform="translate(2 3)"/>
</clipPath>
</defs>
</svg>
