<svg width="256" height="93" viewBox="0 0 256 93" fill="none" xmlns="http://www.w3.org/2000/svg">
<rect width="256" height="92.4682" rx="12" fill="#FDE937"/>
<path d="M211.551 45.0562L200.416 30.6756C200.126 30.2895 199.545 30 199.061 30H147.743V62.1286H199.642C200.126 62.1286 200.513 61.9355 200.803 61.5495L211.648 47.6621C212.132 46.89 212.132 45.8283 211.551 45.0562ZM172.046 56.4448H154.617V35.5013H171.659V40.8096H161.589V43.2224H170.497V48.3377H161.589V51.0401H172.046V56.4448ZM188.894 56.4448L185.311 50.847L181.729 56.4448H173.692L181.245 45.9248L173.886 35.5978H181.826L185.408 40.9061L188.894 35.5978H196.543L189.281 45.7318L197.027 56.5414H188.894V56.4448Z" fill="#1E1E1E"/>
<path fill-rule="evenodd" clip-rule="evenodd" d="M154.589 56.4448H172.018V51.04H161.56V48.3376H170.468V43.2223H161.56V40.8095H171.63V35.5012H154.589V56.4448ZM185.283 50.847L188.865 56.4448V56.5413H196.999L189.253 45.7317L196.515 35.5977H188.865L185.38 40.906L181.797 35.5977H173.857L181.216 45.9247L173.664 56.4448H181.7L185.283 50.847Z" fill="white"/>
<path opacity="0.95" fill-rule="evenodd" clip-rule="evenodd" d="M43.5961 49.8143C43.742 50.8669 44.0286 51.6537 44.4558 52.1748C45.2375 53.1232 46.5767 53.5974 48.4734 53.5974C49.6094 53.5974 50.5318 53.4723 51.2405 53.2222C52.5849 52.7428 53.2571 51.8518 53.2571 50.549C53.2571 49.7882 52.9236 49.1994 52.2566 48.7825C51.5896 48.3761 50.5422 48.0165 49.1144 47.7039L46.6757 47.1567C44.2786 46.6148 42.6216 46.0259 41.7045 45.3902C40.1516 44.3271 39.3752 42.6649 39.3752 40.4033C39.3752 38.3398 40.1255 36.6255 41.6263 35.2602C43.127 33.8949 45.3312 33.2123 48.239 33.2123C50.6673 33.2123 52.7386 33.8558 54.4526 35.1429C56.1671 36.43 57.0662 38.2981 57.1498 40.7473H52.5224C52.439 39.3612 51.8345 38.3763 50.7089 37.7927C49.9586 37.4071 49.0258 37.2143 47.9107 37.2143C46.6705 37.2143 45.6804 37.4644 44.9405 37.9646C44.2005 38.4649 43.8305 39.1631 43.8305 40.0594C43.8305 40.8827 44.1953 41.4977 44.9248 41.9041C45.3938 42.1751 46.3943 42.4929 47.9263 42.8577L51.8971 43.8113C53.6372 44.2282 54.9507 44.7857 55.8363 45.484C57.2125 46.5679 57.9002 48.1363 57.9002 50.1895C57.9002 52.2946 57.0953 54.0429 55.4846 55.4342C53.8747 56.8256 51.6 57.5212 48.6611 57.5212C45.6596 57.5212 43.299 56.836 41.5794 55.4655C39.8598 54.0951 39 52.2113 39 49.8143H43.5961ZM59.3541 43.2172V40.0438H61.7302V35.2914H66.1388V40.0438H68.9054V43.2172H66.1388V52.2217C66.1388 52.9199 66.2269 53.3551 66.4039 53.527C66.5816 53.699 67.123 53.785 68.0303 53.785C68.1654 53.785 68.3088 53.7824 68.4596 53.7772C68.6112 53.772 68.7598 53.7641 68.9054 53.7537V57.0835L66.7952 57.1617C64.6902 57.2346 63.252 56.8699 62.4806 56.0674C61.9803 55.5567 61.7302 54.7699 61.7302 53.7068V43.2172H59.3541ZM78.4881 43.1078C77.4569 43.1078 76.6564 43.4309 76.0889 44.0771C75.5206 44.7232 75.1637 45.5987 75.0181 46.7034H81.9431C81.87 45.5257 81.513 44.632 80.8723 44.0223C80.2317 43.4126 79.4364 43.1078 78.4881 43.1078ZM78.4881 39.4341C79.9053 39.4341 81.1822 39.6999 82.318 40.2314C83.4545 40.7629 84.3924 41.6018 85.1324 42.7483C85.7992 43.7592 86.2316 44.9316 86.4294 46.2656C86.5444 47.0473 86.5915 48.1728 86.5706 49.6423H74.9083C74.971 51.3515 75.5079 52.55 76.519 53.2378C77.1335 53.6652 77.8735 53.8788 78.7382 53.8788C79.6559 53.8788 80.4004 53.6182 80.9739 53.0971C81.2868 52.8158 81.5631 52.4249 81.8028 51.9247H86.3518C86.2368 52.9356 85.7104 53.9621 84.7725 55.0043C83.3134 56.6614 81.2711 57.49 78.6449 57.49C76.4771 57.49 74.5648 56.7917 72.9071 55.3952C71.2501 53.9987 70.422 51.7267 70.422 48.5793C70.422 45.6299 71.1695 43.3684 72.6651 41.7946C74.1608 40.2209 76.1016 39.4341 78.4881 39.4341ZM98.9669 48.6418C98.6861 48.819 98.4016 48.9623 98.1156 49.0717C97.8289 49.1811 97.4354 49.2827 96.9351 49.3765L95.9344 49.5641C94.9966 49.7309 94.3245 49.9341 93.9176 50.1738C93.2298 50.5802 92.8863 51.2108 92.8863 52.0654C92.8863 52.8262 93.0969 53.3759 93.5196 53.7146C93.9414 54.0533 94.4545 54.2227 95.0593 54.2227C96.0181 54.2227 96.9014 53.9413 97.7087 53.3785C98.5166 52.8158 98.9363 51.7892 98.9669 50.2989V48.6418ZM96.263 46.5627C97.0859 46.4584 97.675 46.3282 98.029 46.1718C98.6652 45.9009 98.9826 45.4788 98.9826 44.9055C98.9826 44.2073 98.7406 43.7253 98.256 43.4595C97.7714 43.1938 97.0597 43.0609 96.1219 43.0609C95.0697 43.0609 94.3245 43.3215 93.8869 43.8426C93.5741 44.2282 93.3657 44.7493 93.2612 45.4059H88.9623C89.0564 43.9155 89.4731 42.6909 90.2131 41.7321C91.3907 40.2314 93.412 39.481 96.2787 39.481C98.144 39.481 99.801 39.851 101.25 40.5909C102.698 41.3309 103.423 42.7274 103.423 44.7805V52.5969C103.423 53.1388 103.433 53.7954 103.454 54.5666C103.485 55.1503 103.573 55.5463 103.72 55.7547C103.865 55.9631 104.084 56.1351 104.376 56.2706V56.9272H99.5299C99.3948 56.5833 99.3007 56.2602 99.2484 55.9579C99.1969 55.6557 99.1551 55.3118 99.1237 54.9262C98.5084 55.5932 97.7998 56.1612 96.9978 56.6302C96.039 57.1825 94.9548 57.4587 93.7458 57.4587C92.2038 57.4587 90.9292 57.0184 89.9233 56.1377C88.9183 55.2571 88.415 54.009 88.415 52.3937C88.415 50.2989 89.2229 48.7825 90.8381 47.8446C91.7244 47.3339 93.0267 46.9691 94.7464 46.7502L96.263 46.5627ZM111.927 56.9272H107.471V33.8845H111.927V56.9272ZM114.522 43.2172V40.0438H116.898V35.2914H121.307V40.0438H124.073V43.2172H121.307V52.2217C121.307 52.9199 121.395 53.3551 121.572 53.527C121.749 53.699 122.291 53.785 123.198 53.785C123.334 53.785 123.476 53.7824 123.628 53.7772C123.779 53.772 123.928 53.7641 124.073 53.7537V57.0835L121.963 57.1617C119.858 57.2346 118.42 56.8699 117.648 56.0674C117.148 55.5567 116.898 54.7699 116.898 53.7068V43.2172H114.522ZM136.33 39.4498C137.382 39.4498 138.338 39.6321 139.198 39.9969C140.058 40.3617 140.764 40.9193 141.316 41.6696C141.785 42.3053 142.072 42.9593 142.176 43.6315C142.28 44.3037 142.333 45.4006 142.333 46.9222V56.9272H137.784V46.5627C137.784 45.6455 137.627 44.9056 137.315 44.3428C136.908 43.5508 136.136 43.1547 135.001 43.1547C133.823 43.1547 132.929 43.5482 132.32 44.335C131.71 45.1219 131.405 46.2448 131.405 47.7039V56.9272H126.965V33.9627H131.405V42.1073C132.051 41.1172 132.799 40.4268 133.648 40.036C134.498 39.6451 135.392 39.4498 136.33 39.4498Z" fill="#1E1E1E"/>
</svg>
